<?xml version="1.0" encoding="utf-8"?>
<!-- Generator: Adobe Illustrator 16.0.0, SVG Export Plug-In . SVG Version: 6.00 Build 0)  -->
<!DOCTYPE svg PUBLIC "-//W3C//DTD SVG 1.1//EN" "http://www.w3.org/Graphics/SVG/1.1/DTD/svg11.dtd">
<svg version="1.1" id="Layer_1" xmlns="http://www.w3.org/2000/svg" xmlns:xlink="http://www.w3.org/1999/xlink" x="0px" y="0px"
	 width="81.25px" height="14px" viewBox="0 0 81.25 14" enable-background="new 0 0 81.25 14" xml:space="preserve">
<g>
	<path fill="#FFFDEA" d="M31.94,5.638v2.714h-2.353c-0.317,0-0.547,0.044-0.675,0.134c-0.141,0.1-0.211,0.255-0.211,0.479
		c0,0.271,0.071,0.435,0.214,0.514c0.13,0.079,0.407,0.107,0.831,0.107h2.426v3.483h-2.829c-1.345,0-2.363-0.317-3.068-0.977
		c-0.705-0.633-1.057-1.532-1.057-2.751V4.581c0-1.152,0.339-2.052,1.005-2.701c0.666-0.635,1.604-0.953,2.814-0.953h3.134v3.483
		h-2.304c-0.623,0-0.935,0.199-0.935,0.598c0,0.236,0.076,0.411,0.227,0.499s0.418,0.131,0.788,0.131H31.94z"/>
	<path fill="#FFFDEA" d="M37.862,0.928V13.07h-3.618V0.928H37.862z M44.785,0.928l-3.201,5.506l3.189,6.636h-4.057l-2.757-6.71
		l3.117-5.432H44.785z"/>
	<path fill="#FFFDEA" d="M50.622,5.266v3.202h-1.009v4.602h-3.604V0.928h3.604v4.338H50.622z M54.844,0.928V13.07h-3.632V0.928
		H54.844z"/>
	<path fill="#FFFDEA" d="M69.863,0.928V9.66c0,1.092-0.323,1.997-0.997,2.664c-0.646,0.692-1.5,1.053-2.534,1.053
		c-1.255,0-2.233-0.591-2.885-1.718c-0.402,0.594-0.852,1.042-1.319,1.296c-0.469,0.28-1.036,0.422-1.729,0.422
		c-1.092,0-1.936-0.36-2.505-1.053c-0.596-0.667-0.867-1.665-0.867-2.97V0.928h3.604v7.887c0,0.386,0.021,0.662,0.088,0.771
		c0.068,0.135,0.178,0.202,0.383,0.202c0.341,0,0.538-0.304,0.538-0.911v-7.95h3.604v7.887c0,0.378,0.021,0.652,0.091,0.766
		c0.07,0.139,0.207,0.208,0.386,0.208c0.367,0,0.538-0.317,0.538-0.974V0.928H69.863z"/>
	<path fill="#FFFDEA" d="M79.622,1.75c-0.548-0.61-1.341-0.96-2.364-1.078V13.07h3.385V5.224C80.642,3.646,80.311,2.497,79.622,1.75
		z"/>
	<path fill="#FFFDEA" d="M76.476,0.622c-1.479,0-2.634,0.406-3.438,1.244c-0.83,0.825-1.232,1.989-1.232,3.48v7.724h3.605v-2.89
		h1.031V6.964h-1.031V5.462c0-0.848,0.292-1.272,0.85-1.272c0.101,0,0.185,0.03,0.294,0.062V0.626
		C76.51,0.625,76.495,0.622,76.476,0.622z"/>
	<path fill="#FFFDEA" d="M19.109,0.622c-1.479,0-2.632,0.406-3.438,1.244c-0.817,0.825-1.232,1.989-1.232,3.48v7.724h3.618v-2.89
		h1.032V6.964h-1.032V5.462c0-0.848,0.279-1.272,0.836-1.272c0.114,0,0.212,0.03,0.295,0.062V0.626
		C19.157,0.625,19.128,0.622,19.109,0.622z"/>
	<path fill="#FFFDEA" d="M23.289,5.224c0-1.578-0.345-2.727-1.034-3.474c-0.548-0.609-1.341-0.96-2.363-1.078V13.07h3.397V5.224z"/>
	<rect x="2.129" y="0.928" fill="#FFFDEA" width="0.386" height="12.142"/>
	<rect x="2.779" y="0.928" fill="#FFFDEA" width="0.432" height="12.142"/>
	<rect x="0.642" y="0.928" fill="#FFFDEA" width="0.23" height="12.142"/>
	<rect x="1.311" y="0.928" fill="#FFFDEA" width="0.27" height="12.142"/>
	<rect x="0.957" y="0.928" fill="#FFFDEA" width="0.27" height="12.142"/>
	<rect x="1.666" y="0.928" fill="#FFFDEA" width="0.296" height="12.142"/>
	<path fill="#FFFDEA" d="M11.293,6.556c0.883-0.685,1.338-1.524,1.338-2.542c0-2.062-1.314-3.086-3.93-3.086H4.579V13.07h3.329
		V4.178h0.666c0.594,0,0.898,0.206,0.898,0.629c0,0.46-0.325,0.691-0.989,0.691v3.226h0.684c0.612,0,0.917,0.205,0.917,0.601
		c0,0.231-0.076,0.391-0.227,0.478C9.706,9.89,9.458,9.948,9.087,9.948H8.482v3.122H9.16c0.729,0,1.295-0.067,1.723-0.202
		c0.428-0.109,0.825-0.334,1.204-0.647c0.77-0.673,1.142-1.548,1.142-2.651C13.229,8.122,12.588,7.113,11.293,6.556z"/>
	<rect x="3.545" y="0.928" fill="#FFFDEA" width="0.604" height="12.142"/>
</g>
</svg>
